<svg viewBox="0 0 200 240" xmlns="http://www.w3.org/2000/svg">
  <!-- Monk-Bird Mascot for Chandrahoro -->
  
  <!-- Body (Saffron robes) -->
  <ellipse cx="100" cy="140" rx="45" ry="55" fill="#F46A1F"/>
  
  <!-- Neck -->
  <rect x="85" y="95" width="30" height="25" fill="#E8C4A0"/>
  
  <!-- Head -->
  <circle cx="100" cy="70" r="35" fill="#E8C4A0"/>
  
  <!-- Beak (Bird feature) -->
  <path d="M 130 65 L 160 60 L 130 75 Z" fill="#F46A1F"/>
  
  <!-- Eyes -->
  <circle cx="115" cy="60" r="5" fill="#1A1B1E"/>
  <circle cx="118" cy="58" r="2" fill="white"/>
  
  <!-- Feathers on head -->
  <path d="M 85 40 Q 80 20 90 15 Q 95 25 100 20 Q 105 25 110 15 Q 120 20 115 40" fill="#F46A1F" opacity="0.8"/>
  
  <!-- Wings -->
  <ellipse cx="70" cy="130" rx="20" ry="40" fill="#E25612" transform="rotate(-30 70 130)"/>
  <ellipse cx="130" cy="130" rx="20" ry="40" fill="#E25612" transform="rotate(30 130 130)"/>
  
  <!-- Feet -->
  <g>
    <!-- Left foot -->
    <line x1="85" y1="190" x2="85" y2="210" stroke="#F46A1F" stroke-width="3"/>
    <line x1="80" y1="210" x2="90" y2="210" stroke="#F46A1F" stroke-width="3"/>
    
    <!-- Right foot -->
    <line x1="115" y1="190" x2="115" y2="210" stroke="#F46A1F" stroke-width="3"/>
    <line x1="110" y1="210" x2="120" y2="210" stroke="#F46A1F" stroke-width="3"/>
  </g>
  
  <!-- Mandala halo behind head -->
  <circle cx="100" cy="70" r="50" fill="none" stroke="#DAF56B" stroke-width="2" opacity="0.6"/>
  <circle cx="100" cy="70" r="42" fill="none" stroke="#DAF56B" stroke-width="1" opacity="0.4"/>
  
  <!-- Decorative elements -->
  <circle cx="100" cy="140" r="3" fill="#DAF56B"/>
  <circle cx="85" cy="140" r="2" fill="#DAF56B" opacity="0.6"/>
  <circle cx="115" cy="140" r="2" fill="#DAF56B" opacity="0.6"/>
</svg>

